custom-analysis
version=1
nRows=15
nColumns=42
inDegrees=no

This file contains tibia displacement and acting force.

Units are S.I. units (seconds, meters, Newtons, ...)
Angles are in degrees.

endheader
time	APT	SIT	knee_angle	aACL_R_force	pACL_R_force	aPCL_R_force	pPCL_R_force	aMCL_R_force	mMCL_R_force	pMCL_R_force	aLCL_R_force	mLCL_R_force	pLCL_R_force	aACL_R_length	pACL_R_length	aPCL_R_length	pPCL_R_length	aMCL_R_length	mMCL_R_length	pMCL_R_length	aLCL_R_length	mLCL_R_length	pLCL_R_length	aACL_R_strain	pACL_R_strain	aPCL_R_strain	pPCL_R_strain	aMCL_R_strain	mMCL_R_strain	pMCL_R_strain	aLCL_R_strain	mLCL_R_strain	pLCL_R_strain	femur_lat_meniscii_force_r	femur_lat_meniscii_torque_r	femur_med_meniscii_force_r	femur_med_meniscii_torque_r	femur_lat_tibia_force_r	femur_lat_tibia_torque_r	femur_med_tibia_force_r	femur_med_tibia_torque_r
      0.00000000	      0.00000000	      0.00000000	      1.66574369	     17.58855542	     35.98624740	      0.00000000	      0.00000000	      0.00000000	      4.34794595	     16.58356773	      1.86146449	      0.00000000	      2.98101398	      0.03250699	      0.02691945	      0.02939526	      0.02968776	      0.05649158	      0.06132051	      0.06358360	      0.05697715	      0.05538222	      0.05352596	      0.04842665	      0.06154694	     -0.05467185	     -0.01329561	     -0.02646049	      0.02553805	      0.04702279	      0.01786360	     -0.01662651	      0.02260599	      3.12458934	      0.56083854	     36.57357895	      1.02095808	      0.00000000	      0.00000000	      0.00000000	      0.00000000
      0.00084354	      0.00000315	      0.00009195	      1.66643286	    -50.83675845	    -36.72541117	      0.00000000	      0.00000000	      0.00000000	   -120.98286307	   -109.37032852	   -150.52911021	      0.00000000	   -152.24827493	      0.03242301	      0.02683535	      0.02932447	      0.02961240	      0.05640727	      0.06123421	      0.06349730	      0.05689325	      0.05529726	      0.05344067	      0.04571793	      0.05823062	     -0.05694840	     -0.01580034	     -0.02791335	      0.02409474	      0.04560165	      0.01636477	     -0.01813504	      0.02097659	    101.63595416	     10.12757902	    424.51520450	     23.52212211	      0.00000000	      0.00000000	      0.00000000	      0.00000000
      0.00168709	      0.00000402	      0.00025156	      1.66920281	    -52.84773134	    -42.01720610	      0.00000000	      0.00000000	      0.00000000	   -109.83449003	    -99.93206543	   -130.98761388	      0.00000000	   -133.75083022	      0.03227055	      0.02668214	      0.02920865	      0.02948756	      0.05626324	      0.06108598	      0.06334849	      0.05675235	      0.05515410	      0.05329672	      0.04080097	      0.05218868	     -0.06067329	     -0.01994974	     -0.03039558	      0.02161571	      0.04315133	      0.01384753	     -0.02067703	      0.01822650	    420.04687102	     30.60817202	   1092.37579289	     61.11433750	      0.00000000	      0.00000000	      0.00000000	      0.00000000
      0.00253063	     -0.00000344	      0.00035943	      1.67602247	    -27.67300947	    -18.18331023	      0.00000000	      0.00000000	      0.00000000	    -57.99100899	    -49.39908932	    -67.39471178	      0.00000000	    -70.12825622	      0.03216004	      0.02657063	      0.02914019	      0.02941162	      0.05616846	      0.06098744	      0.06324840	      0.05666273	      0.05506224	      0.05320387	      0.03723658	      0.04779141	     -0.06287463	     -0.02247344	     -0.03202895	      0.01996776	      0.04150308	      0.01224666	     -0.02230815	      0.01645260	    506.72992610	     30.80513538	   1104.77019884	     53.09799148	      0.00000000	      0.00000000	      0.00000000	      0.00000000
      0.00328541	     -0.00000654	      0.00041734	      1.68799119	    -15.87147895	     -7.23500659	      0.00000000	      0.00000000	      0.00000000	    -38.62120034	    -30.76886077	    -46.95057103	      0.00000000	    -49.87434450	      0.03210014	      0.02650950	      0.02910750	      0.02937432	      0.05611987	      0.06093594	      0.06319494	      0.05661619	      0.05501393	      0.05315446	      0.03530486	      0.04538102	     -0.06392615	     -0.02371341	     -0.03286623	      0.01910636	      0.04062279	      0.01141524	     -0.02316581	      0.01550865	    532.15363945	     34.78454199	   1056.99563837	     49.96876368	      0.00000000	      0.00000000	      0.00000000	      0.00000000
      0.00404018	     -0.00000391	      0.00046173	      1.70589700	    -10.43564192	     -2.50656270	      0.00000000	      0.00000000	      0.00000000	    -31.50955253	    -24.36093164	    -40.93140767	      0.00000000	    -44.30428320	      0.03205769	      0.02646550	      0.02908273	      0.02934598	      0.05608413	      0.06089729	      0.06315389	      0.05657950	      0.05497553	      0.05311468	      0.03393569	      0.04364568	     -0.06472266	     -0.02465518	     -0.03348212	      0.01845998	      0.03994685	      0.01075968	     -0.02384771	      0.01474849	    579.28957368	     42.82882957	   1068.09547967	     50.13569599	      0.00000000	      0.00000000	      0.05380325	      0.00142193
      0.00495924	      0.00000480	      0.00050857	      1.73558998	     -6.90787796	      0.26749338	      0.00000000	      0.00000000	      0.00000000	    -27.43585688	    -21.21344226	    -37.93355258	      0.00000000	    -42.07616865	      0.03201788	      0.02642342	      0.02905649	      0.02931604	      0.05604783	      0.06085720	      0.06311018	      0.05653913	      0.05493294	      0.05306998	      0.03265155	      0.04198656	     -0.06556646	     -0.02565035	     -0.03410774	      0.01778949	      0.03922698	      0.01003851	     -0.02460386	      0.01389460	    646.95994460	     53.20040921	   1096.89316148	     50.05673802	      0.00000000	      0.00000000	      1.22733545	      0.03064449
      0.00618822	      0.00002275	      0.00056479	      1.78900671	     -4.78765376	      1.44971827	      0.00000000	      0.00000000	      0.00000000	    -25.26216767	    -20.39529162	    -36.38254047	      0.00000000	    -41.84925405	      0.03197637	      0.02637822	      0.02902670	      0.02928158	      0.05600673	      0.06081025	      0.06305695	      0.05648950	      0.05487987	      0.05301327	      0.03131292	      0.04020390	     -0.06652454	     -0.02679557	     -0.03481601	      0.01700437	      0.03835046	      0.00915200	     -0.02554635	      0.01281114	    743.10760127	     68.01953162	   1154.68076974	     49.43963622	      0.00000000	      0.00000000	      5.58104035	      0.14047428
      0.00683142	      0.00003472	      0.00059311	      1.82344065	     -3.42320764	      2.37692538	      0.00000000	      0.00000000	      0.00000000	    -22.80759027	    -18.72096987	    -33.18098597	      0.00000000	    -39.43241401	      0.03195763	      0.02635718	      0.02901282	      0.02926513	      0.05598722	      0.06078717	      0.06302985	      0.05646457	      0.05485281	      0.05298391	      0.03070844	      0.03937436	     -0.06697105	     -0.02734236	     -0.03515223	      0.01661828	      0.03790421	      0.00870655	     -0.02602672	      0.01225014	    767.43351852	     73.16289109	   1148.81917978	     46.72690641	      0.00000000	      0.00000000	      9.06036795	      0.22669550
      0.00747463	      0.00004782	      0.00062017	      1.86239245	     -3.25238539	      2.09447071	      0.00000000	      0.00000000	      0.00000000	    -22.62603522	    -19.33110830	    -32.62190089	      0.00000000	    -39.74044486	      0.03194085	      0.02633788	      0.02900103	      0.02925060	      0.05596964	      0.06076561	      0.06300373	      0.05644129	      0.05482716	      0.05295564	      0.03016738	      0.03861319	     -0.06735008	     -0.02782522	     -0.03545514	      0.01625783	      0.03747415	      0.00829062	     -0.02648226	      0.01171015	    812.95343084	     79.88152037	   1180.98204766	     46.23282419	      0.00000000	      0.00000000	     13.31473141	      0.33101091
      0.00831256	      0.00006688	      0.00065553	      1.92009686	     -1.83117108	      2.96410573	      0.00000000	      0.00000000	      0.00000000	    -19.62030648	    -17.41080739	    -28.05475706	      0.00000000	    -36.34247166	      0.03192002	      0.02631338	      0.02898739	      0.02923295	      0.05594796	      0.06073803	      0.06296935	      0.05641186	      0.05479420	      0.05291882	      0.02949543	      0.03764697	     -0.06778885	     -0.02841172	     -0.03582884	      0.01579660	      0.03690809	      0.00776493	     -0.02706735	      0.01100662	    826.94628403	     84.53946541	   1158.67640991	     42.22062349	      0.00000000	      0.00000000	     19.81091804	      0.48965923
      0.00881836	      0.00007936	      0.00067580	      1.95881508	     -2.61130464	      1.80635060	      0.00000000	      0.00000000	      0.00000000	    -21.20821126	    -19.64103645	    -29.57356561	      0.00000000	    -38.63675656	      0.03190886	      0.02629979	      0.02898112	      0.02922404	      0.05593665	      0.06072276	      0.06294949	      0.05639582	      0.05477580	      0.05289780	      0.02913541	      0.03711109	     -0.06799037	     -0.02870790	     -0.03602382	      0.01554113	      0.03658093	      0.00747848	     -0.02739420	      0.01060517	    879.03111527	     90.81787671	   1215.59379054	     44.11891421	      0.00000000	      0.00000000	     24.69457202	      0.60831021
      0.00932416	      0.00009280	      0.00069665	      2.00051283	     -2.23111460	      1.85832103	      0.00000000	      0.00000000	      0.00000000	    -20.23392037	    -19.34481023	    -27.61528977	      0.00000000	    -37.44768883	      0.03189759	      0.02628593	      0.02897520	      0.02921523	      0.05592542	      0.06070723	      0.06292900	      0.05637983	      0.05475723	      0.05287642	      0.02877192	      0.03656450	     -0.06818066	     -0.02900064	     -0.03621720	      0.01528140	      0.03624352	      0.00719279	     -0.02772391	      0.01019663	    889.87545946	     93.37293360	   1213.47928024	     43.15441777	      0.00000000	      0.00000000	     29.21986505	      0.71702090
      0.01011870	      0.00011525	      0.00072898	      2.07203526	     -2.71662032	      0.84517275	      0.00000000	      0.00000000	      0.00000000	    -20.95742304	    -21.13707422	    -27.24150859	      0.00000000	    -38.33903321	      0.03188082	      0.02626480	      0.02896812	      0.02920313	      0.05590942	      0.06068377	      0.06289697	      0.05635648	      0.05472941	      0.05284375	      0.02823122	      0.03573141	     -0.06840856	     -0.02940301	     -0.03649307	      0.01488905	      0.03571615	      0.00677567	     -0.02821781	      0.00957256	    935.47699214	     99.43870105	   1253.13432674	     42.84228028	      0.00000000	      0.00000000	     37.16590303	      0.90795710
      0.01063519	      0.00013083	      0.00075067	      2.12251063	     -2.09668045	      1.17098588	      0.00000000	      0.00000000	      0.00000000	    -19.34849881	    -20.25752498	    -24.10820209	      0.00000000	    -36.02624528	      0.03186972	      0.02625068	      0.02896422	      0.02919560	      0.05589923	      0.06066826	      0.06287538	      0.05634165	      0.05471138	      0.05282229	      0.02787313	      0.03517433	     -0.06853374	     -0.02965314	     -0.03666868	      0.01462962	      0.03536061	      0.00651064	     -0.02853794	      0.00916241	    925.18723684	     99.49942689	   1227.08385464	     43.22062915	      0.00000000	      0.00000000	     41.89549402	      1.02094636
